<svg width="23.414185" height="12.828430" viewBox="0 0 23.4142 12.8284" fill="none" xmlns="http://www.w3.org/2000/svg" xmlns:xlink="http://www.w3.org/1999/xlink">
	<desc>
			Created with Pixso.
	</desc>
	<defs/>
	<path id="Icon" d="M17.7072 12.1213L23.4142 6.41422L17.7072 0.707123L16.2928 2.12134L21.2928 7.12134L22 6.41422L21.2928 5.70712L16.2928 10.7071L17.7072 12.1213ZM22 5.41422L1 5.41422L1 7.41422L22 7.41422L22 5.41422ZM16.307 10.693L15.5858 11.4142L17 12.8284L17.7212 12.1072L16.307 10.693ZM17.7212 0.721252L17 0L15.5858 1.41422L16.307 2.13547L17.7212 0.721252ZM1.02002 5.41422L0 5.41422L0 7.41422L1.02002 7.41422L1.02002 5.41422Z" fill="#00657B" fill-opacity="1.000000" fill-rule="evenodd"/>
</svg>
