<svg width="23.414185" height="12.828430" viewBox="0 0 23.4142 12.8284" fill="none" xmlns="http://www.w3.org/2000/svg" xmlns:xlink="http://www.w3.org/1999/xlink">
	<desc>
			Created with Pixso.
	</desc>
	<defs/>
	<path id="Icon" d="M5.70703 12.1213L0 6.41422L5.70703 0.707123L7.12134 2.12134L2.12134 7.12134L1.41418 6.41422L2.12134 5.70712L7.12134 10.7071L5.70703 12.1213ZM1.41418 5.41422L22.4142 5.41422L22.4142 7.41422L1.41418 7.41422L1.41418 5.41422ZM7.10718 10.693L7.82837 11.4142L6.41418 12.8284L5.69299 12.1072L7.10718 10.693ZM5.69299 0.721252L6.41418 0L7.82837 1.41422L7.10718 2.13547L5.69299 0.721252ZM22.3942 5.41422L23.4142 5.41422L23.4142 7.41422L22.3942 7.41422L22.3942 5.41422Z" fill="#636B70" fill-opacity="1.000000" fill-rule="evenodd"/>
</svg>
