<svg width="400" height="138" viewBox="0 0 400 138" fill="none" xmlns="http://www.w3.org/2000/svg">
<rect width="99.7742" height="34.2271" transform="matrix(1 8.28474e-08 9.22508e-08 -1 0 137.652)" fill="white" fill-opacity="0.3"/>
<rect width="100.226" height="34.655" transform="matrix(1 8.28474e-08 9.22508e-08 -1 99.7747 103.425)" fill="white" fill-opacity="0.15"/>
<rect width="100.226" height="34.655" transform="matrix(1 8.28474e-08 9.22508e-08 -1 199.548 35.1874)" fill="white" fill-opacity="0.05"/>
<rect width="100.226" height="34.655" transform="matrix(1 8.28474e-08 9.22508e-08 -1 299.774 69.8423)" fill="white" fill-opacity="0.05"/>
<rect width="99.7742" height="34.2271" transform="matrix(1 8.28474e-08 9.22508e-08 -1 0 68.7702)" fill="white" fill-opacity="0.15"/>
<path d="M200 137.652L299.774 137.652L299.774 103.425L200 103.425L200 137.652Z" fill="white" fill-opacity="0.1"/>
</svg>
