<svg width="36.000000" height="36.000000" viewBox="0 0 36 36" fill="none" xmlns="http://www.w3.org/2000/svg" xmlns:xlink="http://www.w3.org/1999/xlink">
	<desc>
			Created with Pixso.
	</desc>
	<defs>
		<clipPath id="clip68_900">
			<rect id="Слой_1" width="20.000000" height="20.000000" transform="translate(8.000000 8.000000)" fill="white" fill-opacity="0"/>
		</clipPath>
	</defs>
	<rect id="Rectangle 4579" width="36.000000" height="36.000000" fill="#00657B" fill-opacity="1.000000"/>
	<rect id="Слой_1" width="20.000000" height="20.000000" transform="translate(8.000000 8.000000)" fill="#FFFFFF" fill-opacity="0"/>
	<g clip-path="url(#clip68_900)">
		<path id="Vector" d="M11.4498 10.448C10.2189 11.5142 9.26721 12.865 8.67749 14.3829C8.08783 15.9008 7.87799 17.5398 8.06635 19.1573C8.25464 20.7748 8.83539 22.3218 9.758 23.6637C10.6807 25.0055 11.9172 26.1016 13.3602 26.8566L13.8264 27.1004L15.4146 23.8346L14.9835 23.6077C14.0582 23.1108 13.2706 22.3922 12.6911 21.5163C12.1116 20.6404 11.7584 19.6344 11.6629 18.5885C11.5675 17.5426 11.7328 16.4894 12.1443 15.5231C12.5557 14.5567 13.2003 13.7075 14.0204 13.0513L16.5491 15.666L16.5491 8L8.86554 8L11.4498 10.448Z" fill="#FFFFFF" fill-opacity="1.000000" fill-rule="nonzero"/>
		<path id="Vector" d="M25.9365 11.9136C24.9268 10.6009 23.608 9.5584 22.0976 8.87914L21.6438 8.67609L20.0556 11.9544L20.5434 12.1665C21.5479 12.6031 22.4225 13.2918 23.0826 14.1658C23.7426 15.0397 24.1657 16.0694 24.3109 17.1549C24.4561 18.2404 24.3184 19.345 23.9111 20.3617C23.5038 21.3783 22.8409 22.2726 21.9864 22.9578L19.4578 20.3351L19.4578 28L27.1401 28L24.5559 25.5555C26.4788 23.8841 27.692 21.5426 27.9485 19.008C28.2051 16.4733 27.4855 13.9362 25.9365 11.9136Z" fill="#FFFFFF" fill-opacity="1.000000" fill-rule="nonzero"/>
	</g>
</svg>
