<svg width="36.000000" height="36.000000" viewBox="0 0 36 36" fill="none" xmlns="http://www.w3.org/2000/svg" xmlns:xlink="http://www.w3.org/1999/xlink">
	<desc>
			Created with Pixso.
	</desc>
	<defs>
		<clipPath id="clip68_890">
			<rect id="Слой_1" width="22.000000" height="22.000000" transform="translate(7.000000 7.000000)" fill="white" fill-opacity="0"/>
		</clipPath>
		<clipPath id="clip68_887">
			<rect id="Frame 1000003663" width="36.000000" height="36.000000" transform="matrix(1 1.22465e-16 1.22465e-16 -1 0 36)" fill="white" fill-opacity="0"/>
		</clipPath>
	</defs>
	<g clip-path="url(#clip68_887)">
		<rect id="Rectangle 4579" x="36.000000" y="36.000000" width="36.000000" height="36.000000" transform="rotate(180 36.000000 36.000000)" fill="#00657B" fill-opacity="1.000000"/>
		<rect id="Слой_1" width="22.000000" height="22.000000" transform="translate(7.000000 7.000000)" fill="#FFFFFF" fill-opacity="0"/>
		<g clip-path="url(#clip68_890)">
			<path id="Vector" d="M7 17.251L17.2474 17.251L17.2474 7L7 7L7 17.251ZM9.10052 11.5272L11.4332 11.5272L11.4332 9.19923L12.6183 9.19923L12.6183 11.5316L14.951 11.5316L14.951 12.7182L12.6183 12.7182L12.6183 15.0517L11.4332 15.0517L11.4332 12.7182L9.10052 12.7182L9.10052 11.5272Z" fill="#FFFFFF" fill-opacity="1.000000" fill-rule="nonzero"/>
			<path id="Vector" d="M18.7483 7L18.7483 17.251L28.9957 17.251L28.9957 7L18.7483 7ZM26.7972 12.7237L20.949 12.7237L20.949 11.5316L26.7994 11.5316L26.7972 12.7237Z" fill="#FFFFFF" fill-opacity="1.000000" fill-rule="nonzero"/>
			<path id="Vector" d="M7 29L17.2474 29L17.2474 18.749L7 18.749L7 29ZM9.63531 22.224L10.4738 21.3852L12.1243 23.0363L13.7747 21.3852L14.6132 22.224L12.9627 23.875L14.6132 25.5261L13.7747 26.3649L12.1243 24.7138L10.4738 26.3649L9.63531 25.5261L11.2858 23.875L9.63531 22.224Z" fill="#FFFFFF" fill-opacity="1.000000" fill-rule="nonzero"/>
			<path id="Vector" d="M18.7483 29L28.9957 29L28.9957 18.749L18.7483 18.749L18.7483 29ZM25.1544 26.3583C24.9624 26.3585 24.7747 26.3017 24.6149 26.1952C24.4552 26.0886 24.3306 25.9371 24.257 25.7597C24.1834 25.5824 24.164 25.3871 24.2014 25.1987C24.2386 25.0103 24.331 24.8372 24.4667 24.7013C24.6024 24.5655 24.7753 24.4729 24.9636 24.4353C25.1519 24.3978 25.347 24.4169 25.5245 24.4904C25.7018 24.5638 25.8535 24.6883 25.9601 24.848C26.0668 25.0076 26.1238 25.1954 26.1238 25.3874C26.1244 25.5149 26.0999 25.6413 26.0516 25.7593C26.0034 25.8773 25.9324 25.9846 25.8427 26.0752C25.7529 26.1658 25.6463 26.2378 25.5287 26.2871C25.4113 26.3364 25.2852 26.3621 25.1577 26.3627L25.1544 26.3583ZM22.5367 21.5658C22.7287 21.5655 22.9164 21.6223 23.0762 21.7288C23.236 21.8354 23.3605 21.9869 23.4341 22.1643C23.5078 22.3417 23.5271 22.5369 23.4898 22.7253C23.4525 22.9137 23.3602 23.0868 23.2245 23.2227C23.0888 23.3586 22.9158 23.4511 22.7275 23.4887C22.5393 23.5262 22.3441 23.5071 22.1667 23.4336C21.9893 23.3602 21.8376 23.2357 21.731 23.0761C21.6243 22.9164 21.5673 22.7286 21.5673 22.5366C21.5685 22.2795 21.6716 22.0333 21.8539 21.8522C22.0363 21.671 22.283 21.5696 22.54 21.5701L22.5367 21.5658ZM25.5219 21.3808L26.3604 22.2196L22.2231 26.3583L21.3891 25.5239L25.5219 21.3808Z" fill="#FFFFFF" fill-opacity="1.000000" fill-rule="nonzero"/>
		</g>
	</g>
</svg>
