<svg width="36.000000" height="36.000000" viewBox="0 0 36 36" fill="none" xmlns="http://www.w3.org/2000/svg" xmlns:xlink="http://www.w3.org/1999/xlink">
	<desc>
			Created with Pixso.
	</desc>
	<defs>
		<clipPath id="clip68_882">
			<rect id="Слой_1" width="24.000000" height="17.000000" transform="translate(6.000000 9.000000)" fill="white" fill-opacity="0"/>
		</clipPath>
	</defs>
	<rect id="Rectangle 4579" x="36.000000" y="36.000000" width="36.000000" height="36.000000" transform="rotate(180 36.000000 36.000000)" fill="#00657B" fill-opacity="1.000000"/>
	<rect id="Слой_1" width="24.000000" height="17.000000" transform="translate(6.000000 9.000000)" fill="#FFFFFF" fill-opacity="0"/>
	<g clip-path="url(#clip68_882)">
		<path id="Vector" d="M30 13.1848L27.3461 13.1848L26.7139 11.5524C26.1196 10.0161 24.621 9.00348 22.9491 9.00348L13.0498 9.00348C11.3834 9.00348 9.88037 10.0196 9.28497 11.5524L8.65393 13.1848L6 13.1848L6 15.1255L7.90186 15.1255L7.87518 15.1973L7.01428 15.7766L6.5799 18.5468L6.5799 25.1624C6.5802 25.3858 6.66553 25.6001 6.81714 25.758C6.96881 25.9159 7.17432 26.0046 7.38861 26.0046L10.2237 26.0046C10.438 26.0046 10.6435 25.9159 10.7951 25.758C10.9468 25.6001 11.0321 25.3858 11.0324 25.1624L11.0324 24.3652L24.9676 24.3652L24.9676 25.1624C24.9676 25.3857 25.0527 25.6 25.2042 25.7579C25.3556 25.9159 25.561 26.0046 25.7752 26.0046L28.6114 26.0046C28.8257 26.0046 29.0312 25.9159 29.1829 25.758C29.3345 25.6001 29.4198 25.3858 29.4201 25.1624L29.4201 18.5468L28.9857 15.7766L28.1248 15.1973L28.097 15.1255L30 15.1255L30 13.1848ZM8.08185 18.6765L8.08185 17.6419L12.9131 17.6419L12.9131 18.6765L8.08185 18.6765ZM14.5029 21.836L14.5029 17.7532L15.1061 17.7532L15.1061 21.836L14.5029 21.836ZM16.1693 21.836L16.1693 17.7532L16.7736 17.7532L16.7736 21.836L16.1693 21.836ZM17.8356 21.836L17.8356 17.7532L18.4388 17.7532L18.4388 21.836L17.8356 21.836ZM19.502 21.836L19.502 17.7532L20.1052 17.7532L20.1052 21.836L19.502 21.836ZM21.1683 21.836L21.1683 17.7532L21.7715 17.7532L21.7715 21.836L21.1683 21.836ZM28.1926 17.6396L28.1926 18.6742L23.3612 18.6742L23.3612 17.6419L28.1926 17.6396Z" fill="#FFFFFF" fill-opacity="1.000000" fill-rule="nonzero"/>
	</g>
</svg>
