<svg width="1068.281738" height="399.135620" viewBox="0 0 1068.28 399.136" fill="none" xmlns="http://www.w3.org/2000/svg" xmlns:xlink="http://www.w3.org/1999/xlink">
	<desc>
			Created with Pixso.
	</desc>
	<defs/>
	<rect id="фрейм 2" width="1068.281738" height="399.135620" transform="matrix(1 0 0 -1 0 399.136)" fill="#FFFFFF" fill-opacity="0"/>
	<rect id="Rectangle 4660" width="266.467590" height="99.630081" transform="matrix(1 0 0 -1 0 399.136)" fill="#FFFFFF" fill-opacity="0.300000"/>
	<rect id="Rectangle 4661" width="267.673309" height="100.875465" transform="matrix(1 0 0 -1 266.468 299.506)" fill="#FFFFFF" fill-opacity="0.150000"/>
	<rect id="Rectangle 4664" width="267.673309" height="100.875465" transform="matrix(1 0 0 -1 532.935 100.875)" fill="#FFFFFF" fill-opacity="0.050000"/>
	<rect id="Rectangle 4665" width="267.673309" height="100.875465" transform="matrix(1 0 0 -1 800.608 201.751)" fill="#FFFFFF" fill-opacity="0.050000"/>
	<rect id="Rectangle 4662" width="266.467590" height="99.630081" transform="matrix(1 0 0 -1 0 198.63)" fill="#FFFFFF" fill-opacity="0.150000"/>
	<path id="Rectangle 4663" d="M534.141 399.136L800.608 399.136L800.608 299.506L534.141 299.506L534.141 399.136Z" fill="#FFFFFF" fill-opacity="0.100000" fill-rule="nonzero"/>
</svg>
